<svg id="Layer_1" data-name="Layer 1" xmlns="http://www.w3.org/2000/svg" viewBox="0 0 373.37 248.91"><title>battery</title><path d="M4174.87,3953.07a71.15,71.15,0,0,0-30.33-30.33c-8.74-4.54-18.07-6.35-28.23-7.2-9.78-.81-21.79-.81-36.35-.81H3965.75c-14.55,0-26.56,0-36.34.81-10.16.85-19.49,2.66-28.23,7.2a71.15,71.15,0,0,0-30.33,30.33c-4.54,8.74-6.35,18.07-7.2,28.23-.81,9.78-.81,21.79-.81,36.34v43.1c0,14.55,0,26.56.81,36.34.85,10.16,2.66,19.49,7.2,28.23a71.15,71.15,0,0,0,30.33,30.33c8.74,4.54,18.07,6.35,28.23,7.19,9.78.81,21.79.81,36.34.81H4080c14.56,0,26.57,0,36.35-.81,10.16-.84,19.49-2.65,28.23-7.19a71.15,71.15,0,0,0,30.33-30.33c4.54-8.74,6.35-18.07,7.19-28.23.81-9.78.81-21.79.81-36.34v-43.1c0-14.55,0-26.56-.81-36.34C4181.22,3971.14,4179.41,3961.81,4174.87,3953.07ZM4147.31,4060c0,15.49,0,26-.69,34.15-.65,7.92-1.84,12-3.31,14.78a35.55,35.55,0,0,1-15.16,15.16c-2.82,1.47-6.87,2.66-14.79,3.32-8.13.67-18.66.69-34.14.69h-35.53v-177.8h35.53c15.48,0,26,0,34.14.69,7.92.66,12,1.85,14.79,3.31a35.57,35.57,0,0,1,15.16,15.17c1.47,2.82,2.66,6.86,3.31,14.78.68,8.13.69,18.66.69,34.15Z" transform="translate(-3862.84 -3914.73)"/><path d="M4218.43,3968.07a17.78,17.78,0,0,0-17.78,17.78v106.68a17.78,17.78,0,1,0,35.56,0V3985.85A17.78,17.78,0,0,0,4218.43,3968.07Z" transform="translate(-3862.84 -3914.73)"/></svg>