<svg id="Layer_1" data-name="Layer 1" xmlns="http://www.w3.org/2000/svg" viewBox="0 0 350.03 253.77"><title>camera</title><path d="M5412.09,110.56H5069.93a3.93,3.93,0,0,0-3.93,3.93V360.4a3.93,3.93,0,0,0,3.93,3.93h342.16a3.93,3.93,0,0,0,3.94-3.93V114.49A3.93,3.93,0,0,0,5412.09,110.56Zm-22.31,227.52H5092.25V136.81h297.53Z" transform="translate(-5066 -110.56)"/><path d="M5140.38,198.07h35a13.13,13.13,0,1,0,0-26.26h-35a13.13,13.13,0,0,0,0,26.26Z" transform="translate(-5066 -110.56)"/><path d="M5280.39,303.08a65.64,65.64,0,1,0-65.63-65.63A65.7,65.7,0,0,0,5280.39,303.08Zm0-105A39.38,39.38,0,1,1,5241,237.45,39.42,39.42,0,0,1,5280.39,198.07Z" transform="translate(-5066 -110.56)"/></svg>