<?xml version="1.0" encoding="UTF-8"?>
<svg width="700pt" height="700pt" version="1.1" viewBox="0 0 700 700" xmlns="http://www.w3.org/2000/svg" xmlns:xlink="http://www.w3.org/1999/xlink">
 <defs>
  <symbol id="t" overflow="visible">
   <path d="m0.23438-0.015625c-0.011719 0.011719-0.027344 0.015625-0.046875 0.015625h-0.03125c-0.042969 0-0.078125-0.0078125-0.10938-0.03125-0.023438-0.019531-0.03125-0.050781-0.03125-0.09375 0-0.039062 0.0078125-0.070312 0.03125-0.09375 0.03125-0.019531 0.066406-0.03125 0.10938-0.03125h0.03125c0.019531 0 0.035156 0.007812 0.046875 0.015625v0.046875c-0.011719-0.007812-0.027344-0.015625-0.046875-0.015625h-0.03125c-0.023438 0-0.042969 0.007813-0.0625 0.015625-0.011719 0.011719-0.015625 0.03125-0.015625 0.0625s0.0039062 0.054688 0.015625 0.0625c0.019531 0.011719 0.039062 0.015625 0.0625 0.015625h0.03125c0.019531 0 0.035156-0.0039062 0.046875-0.015625z"/>
  </symbol>
  <symbol id="c" overflow="visible">
   <path d="m0.17188-0.14062h-0.03125c-0.023437 0-0.039063 0.007813-0.046875 0.015625v0.046875 0.078125h-0.0625v-0.1875h0.0625v0.03125l0.015625-0.015625c0.007813-0.007813 0.023437-0.015625 0.046875-0.015625h0.015625z"/>
  </symbol>
  <symbol id="a" overflow="visible">
   <path d="m0.21875-0.09375v0.015625h-0.14062c0 0.023438 0.0039062 0.039062 0.015625 0.046875h0.03125 0.03125c0.019531-0.0078125 0.035156-0.019531 0.046875-0.03125v0.046875c-0.011719 0.011719-0.027344 0.015625-0.046875 0.015625h-0.03125c-0.042969 0-0.074219-0.0039062-0.09375-0.015625-0.011719-0.019531-0.015625-0.046875-0.015625-0.078125s0.0039062-0.050781 0.015625-0.0625c0.019531-0.019531 0.050781-0.03125 0.09375-0.03125 0.019531 0 0.039062 0.011719 0.0625 0.03125 0.019531 0.011719 0.03125 0.03125 0.03125 0.0625zm-0.0625-0.015625c0-0.019531-0.007812-0.03125-0.015625-0.03125 0-0.007813-0.007813-0.015625-0.015625-0.015625-0.011719 0-0.023438 0.007812-0.03125 0.015625-0.011719 0-0.015625 0.011719-0.015625 0.03125z"/>
  </symbol>
  <symbol id="f" overflow="visible">
   <path d="m0.10938-0.078125c-0.011719 0-0.023438 0.0078125-0.03125 0.015625v0.03125h0.03125c0.007813 0 0.015625-0.0039062 0.015625-0.015625 0.007812-0.0078125 0.015625-0.019531 0.015625-0.03125zm0.09375-0.03125v0.10938h-0.0625v-0.03125c0 0.011719-0.007813 0.023438-0.015625 0.03125h-0.046875c-0.023438 0-0.039062-0.0039062-0.046875-0.015625-0.011719-0.0078125-0.015625-0.023438-0.015625-0.046875 0-0.019531 0.0039062-0.035156 0.015625-0.046875 0.019531-0.007813 0.046875-0.015625 0.078125-0.015625h0.03125c0-0.007812-0.007813-0.015625-0.015625-0.015625 0-0.007813-0.011719-0.015625-0.03125-0.015625-0.011719 0-0.023438 0.007812-0.03125 0.015625h-0.03125v-0.046875h0.03125 0.046875c0.03125 0 0.050781 0.007812 0.0625 0.015625 0.019531 0.011719 0.03125 0.03125 0.03125 0.0625z"/>
  </symbol>
  <symbol id="b" overflow="visible">
   <path d="m0.09375-0.23438v0.046875h0.0625v0.046875h-0.0625v0.078125 0.015625h0.03125 0.03125v0.046875h-0.046875c-0.03125 0-0.054688-0.0039062-0.0625-0.015625-0.011719-0.0078125-0.015625-0.023438-0.015625-0.046875v-0.078125h-0.03125v-0.046875h0.03125v-0.046875z"/>
  </symbol>
  <symbol id="i" overflow="visible">
   <path d="m0.15625-0.15625v-0.10938h0.0625v0.26562h-0.0625v-0.03125c-0.011719 0.011719-0.023438 0.023438-0.03125 0.03125h-0.03125c-0.023438 0-0.042969-0.0039062-0.0625-0.015625-0.011719-0.019531-0.015625-0.046875-0.015625-0.078125s0.0039062-0.050781 0.015625-0.0625c0.019531-0.019531 0.039062-0.03125 0.0625-0.03125 0.007812 0 0.019531 0.007812 0.03125 0.015625 0.007812 0 0.019531 0.007813 0.03125 0.015625zm-0.03125 0.125c0.007812 0 0.015625-0.0039062 0.015625-0.015625 0.007813-0.0078125 0.015625-0.023438 0.015625-0.046875 0-0.019531-0.007812-0.035156-0.015625-0.046875 0-0.007813-0.007813-0.015625-0.015625-0.015625-0.023438 0-0.039062 0.007812-0.046875 0.015625v0.046875 0.046875c0.0078125 0.011719 0.023437 0.015625 0.046875 0.015625z"/>
  </symbol>
  <symbol id="h" overflow="visible">
   <path d="m0.125-0.03125c0.019531 0 0.03125-0.0039062 0.03125-0.015625 0.007812-0.0078125 0.015625-0.023438 0.015625-0.046875 0-0.019531-0.007813-0.035156-0.015625-0.046875 0-0.007813-0.011719-0.015625-0.03125-0.015625-0.011719 0-0.023438 0.007812-0.03125 0.015625v0.046875 0.046875c0.007812 0.011719 0.019531 0.015625 0.03125 0.015625zm-0.03125-0.125c0.007812-0.007812 0.019531-0.015625 0.03125-0.015625 0.007812-0.007813 0.019531-0.015625 0.03125-0.015625 0.019531 0 0.035156 0.011719 0.046875 0.03125 0.019531 0.011719 0.03125 0.03125 0.03125 0.0625s-0.011719 0.058594-0.03125 0.078125c-0.011719 0.011719-0.027344 0.015625-0.046875 0.015625h-0.03125c-0.011719-0.0078125-0.023438-0.019531-0.03125-0.03125v0.03125h-0.0625v-0.26562h0.0625z"/>
  </symbol>
  <symbol id="g" overflow="visible">
   <path d="m0-0.1875h0.0625l0.046875 0.125 0.046875-0.125h0.0625l-0.078125 0.20312c-0.011719 0.019531-0.023437 0.035156-0.03125 0.046875-0.011719 0.0078125-0.027344 0.015625-0.046875 0.015625h-0.03125v-0.046875h0.015625 0.015625c0.0078125 0 0.015625-0.0078125 0.015625-0.015625v-0.015625z"/>
  </symbol>
  <symbol id="e" overflow="visible">
   <path d="m0.03125-0.26562h0.0625v0.26562h-0.0625z"/>
  </symbol>
  <symbol id="s" overflow="visible">
   <path d="m0.078125-0.09375-0.0625-0.09375h0.046875l0.046875 0.046875 0.046875-0.046875h0.0625l-0.078125 0.09375 0.078125 0.09375h-0.0625l-0.046875-0.0625-0.046875 0.0625h-0.0625z"/>
  </symbol>
  <symbol id="r" overflow="visible">
   <path d="m0.15625-0.26562v0.046875h-0.03125-0.03125v0.015625 0.015625h0.0625v0.046875h-0.0625v0.14062h-0.0625v-0.14062h-0.03125v-0.046875h0.03125v-0.015625c0-0.019531 0.0039062-0.035156 0.015625-0.046875 0.0078125-0.007812 0.03125-0.015625 0.0625-0.015625z"/>
  </symbol>
  <symbol id="d" overflow="visible">
   <path d="m0.125-0.15625c-0.023438 0-0.039062 0.007812-0.046875 0.015625v0.046875 0.046875c0.0078125 0.011719 0.023437 0.015625 0.046875 0.015625 0.007812 0 0.015625-0.0039062 0.015625-0.015625 0.007813-0.0078125 0.015625-0.023438 0.015625-0.046875 0-0.019531-0.007812-0.035156-0.015625-0.046875 0-0.007813-0.007813-0.015625-0.015625-0.015625zm0-0.03125c0.03125 0 0.050781 0.011719 0.0625 0.03125 0.019531 0.011719 0.03125 0.03125 0.03125 0.0625s-0.011719 0.058594-0.03125 0.078125c-0.011719 0.011719-0.03125 0.015625-0.0625 0.015625-0.042969 0-0.074219-0.0039062-0.09375-0.015625-0.011719-0.019531-0.015625-0.046875-0.015625-0.078125s0.0039062-0.050781 0.015625-0.0625c0.019531-0.019531 0.050781-0.03125 0.09375-0.03125z"/>
  </symbol>
  <symbol id="q" overflow="visible">
   <path d="m0.20312-0.15625c0.007813-0.007812 0.019531-0.015625 0.03125-0.015625 0.007813-0.007813 0.019531-0.015625 0.03125-0.015625 0.019531 0 0.035156 0.007812 0.046875 0.015625 0.007812 0.011719 0.015625 0.03125 0.015625 0.0625v0.10938h-0.0625v-0.09375-0.015625c0-0.007813-0.007813-0.015625-0.015625-0.015625v-0.015625c-0.011719 0-0.023438 0.007813-0.03125 0.015625-0.011719 0-0.015625 0.011719-0.015625 0.03125v0.09375h-0.046875v-0.09375c0-0.019531-0.007812-0.03125-0.015625-0.03125 0-0.007812-0.007813-0.015625-0.015625-0.015625-0.011719 0-0.023438 0.007813-0.03125 0.015625v0.03125 0.09375h-0.0625v-0.1875h0.0625v0.03125l0.015625-0.015625c0.007813-0.007813 0.019531-0.015625 0.03125-0.015625 0.019531 0 0.03125 0.007812 0.03125 0.015625 0.007813 0 0.019531 0.007813 0.03125 0.015625z"/>
  </symbol>
  <symbol id="p" overflow="visible">
   <path d="m0.21875-0.10938v0.10938h-0.0625v-0.078125-0.03125-0.03125h-0.015625-0.015625c-0.011719 0-0.023438 0.007813-0.03125 0.015625v0.03125 0.09375h-0.0625v-0.26562h0.0625v0.10938c0.007812-0.007812 0.019531-0.015625 0.03125-0.015625 0.007812-0.007813 0.019531-0.015625 0.03125-0.015625 0.019531 0 0.035156 0.007812 0.046875 0.015625 0.007813 0.011719 0.015625 0.03125 0.015625 0.0625z"/>
  </symbol>
  <symbol id="o" overflow="visible">
   <path d="m0.03125-0.25h0.078125l0.078125 0.17188v-0.17188h0.0625v0.25h-0.0625l-0.09375-0.17188v0.17188h-0.0625z"/>
  </symbol>
  <symbol id="n" overflow="visible">
   <path d="m0.03125-0.078125v-0.10938h0.046875v0.015625 0.046875 0.015625 0.046875c0.0078125 0 0.015625 0.0078125 0.015625 0.015625h0.03125 0.015625c0.007813-0.0078125 0.015625-0.023438 0.015625-0.046875v-0.09375h0.0625v0.1875h-0.0625v-0.03125c-0.011719 0.011719-0.023438 0.023438-0.03125 0.03125h-0.03125c-0.023438 0-0.039062-0.0039062-0.046875-0.015625-0.011719-0.0078125-0.015625-0.03125-0.015625-0.0625z"/>
  </symbol>
  <symbol id="m" overflow="visible">
   <path d="m0.21875-0.10938v0.10938h-0.0625v-0.078125-0.03125-0.03125h-0.015625-0.015625c-0.011719 0-0.023438 0.007813-0.03125 0.015625v0.03125 0.09375h-0.0625v-0.1875h0.0625v0.03125c0.007812-0.007812 0.019531-0.015625 0.03125-0.015625 0.007812-0.007813 0.019531-0.015625 0.03125-0.015625 0.019531 0 0.035156 0.007812 0.046875 0.015625 0.007813 0.011719 0.015625 0.03125 0.015625 0.0625z"/>
  </symbol>
  <symbol id="l" overflow="visible">
   <path d="m0.03125-0.25h0.10938c0.03125 0 0.050781 0.011719 0.0625 0.03125 0.019531 0.011719 0.03125 0.027344 0.03125 0.046875 0 0.03125-0.011719 0.058594-0.03125 0.078125-0.011719 0.011719-0.03125 0.015625-0.0625 0.015625h-0.046875v0.078125h-0.0625zm0.0625 0.046875v0.0625h0.046875 0.015625c0.007812-0.007813 0.015625-0.019531 0.015625-0.03125 0-0.007813-0.007813-0.015625-0.015625-0.015625 0-0.007812-0.007812-0.015625-0.015625-0.015625z"/>
  </symbol>
  <symbol id="k" overflow="visible">
   <path d="m0.03125-0.1875h0.0625v0.1875c0 0.019531-0.011719 0.035156-0.03125 0.046875-0.011719 0.019531-0.027344 0.03125-0.046875 0.03125h-0.03125v-0.046875h0.015625c0.0078125 0 0.015625-0.0078125 0.015625-0.015625 0.0078125 0 0.015625-0.0078125 0.015625-0.015625zm0-0.078125h0.0625v0.046875h-0.0625z"/>
  </symbol>
  <symbol id="j" overflow="visible">
   <path d="m0.1875-0.1875v0.046875h-0.03125c-0.011719-0.007813-0.023438-0.015625-0.03125-0.015625-0.011719 0-0.023438 0.007812-0.03125 0.015625-0.011719 0.011719-0.015625 0.027344-0.015625 0.046875 0 0.023438 0.0039062 0.039062 0.015625 0.046875 0.007812 0.011719 0.019531 0.015625 0.03125 0.015625h0.03125c0.007812-0.0078125 0.019531-0.015625 0.03125-0.015625v0.046875h-0.03125-0.03125c-0.042969 0-0.074219-0.0039062-0.09375-0.015625-0.011719-0.019531-0.015625-0.046875-0.015625-0.078125s0.0039062-0.050781 0.015625-0.0625c0.019531-0.019531 0.050781-0.03125 0.09375-0.03125h0.03125 0.03125z"/>
  </symbol>
 </defs>
 <g>
  <path d="m384.59 0v332.95l104.86-104.86 48.902 48.836-188.36 188.36-188.36-188.36 48.902-48.836 104.86 104.86v-332.95z"/>
  <path d="m535.82 560h-371.64v-69.109h371.64z"/>
  <use x="161.644531" y="561.027344" xlink:href="#t"/>
  <use x="161.894531" y="561.027344" xlink:href="#c"/>
  <use x="162.0625" y="561.027344" xlink:href="#a"/>
  <use x="162.296875" y="561.027344" xlink:href="#f"/>
  <use x="162.527344" y="561.027344" xlink:href="#b"/>
  <use x="162.691406" y="561.027344" xlink:href="#a"/>
  <use x="162.921875" y="561.027344" xlink:href="#i"/>
  <use x="163.289062" y="561.027344" xlink:href="#h"/>
  <use x="163.53125" y="561.027344" xlink:href="#g"/>
  <use x="163.875" y="561.027344" xlink:href="#f"/>
  <use x="164.105469" y="561.027344" xlink:href="#e"/>
  <use x="164.222656" y="561.027344" xlink:href="#e"/>
  <use x="164.339844" y="561.027344" xlink:href="#a"/>
  <use x="164.574219" y="561.027344" xlink:href="#s"/>
  <use x="161.644531" y="561.371094" xlink:href="#r"/>
  <use x="161.792969" y="561.371094" xlink:href="#c"/>
  <use x="161.960938" y="561.371094" xlink:href="#d"/>
  <use x="162.195312" y="561.371094" xlink:href="#q"/>
  <use x="162.671875" y="561.371094" xlink:href="#b"/>
  <use x="162.835938" y="561.371094" xlink:href="#p"/>
  <use x="163.082031" y="561.371094" xlink:href="#a"/>
  <use x="163.433594" y="561.371094" xlink:href="#o"/>
  <use x="163.71875" y="561.371094" xlink:href="#d"/>
  <use x="163.953125" y="561.371094" xlink:href="#n"/>
  <use x="164.199219" y="561.371094" xlink:href="#m"/>
  <use x="164.5625" y="561.371094" xlink:href="#l"/>
  <use x="164.8125" y="561.371094" xlink:href="#c"/>
  <use x="164.980469" y="561.371094" xlink:href="#d"/>
  <use x="165.214844" y="561.371094" xlink:href="#k"/>
  <use x="165.332031" y="561.371094" xlink:href="#a"/>
  <use x="165.566406" y="561.371094" xlink:href="#j"/>
  <use x="165.769531" y="561.371094" xlink:href="#b"/>
 </g>
</svg>
