<svg id="Layer_1" data-name="Layer 1" xmlns="http://www.w3.org/2000/svg" viewBox="0 0 368.37 368.37"><title>growbot</title><path d="M543,621.16v.05a89.15,89.15,0,0,0,93.84-99.13,89.45,89.45,0,0,0-70,27.71,88.13,88.13,0,0,0-18.43,29.61,128.92,128.92,0,0,0-32.59-62.19C488.61,488.43,451.17,475,414,476.88c-4,37,7.44,75.16,34.69,104C474.07,607.68,508.36,621,543,621.16Z" transform="translate(-341.12 -364.83)"/><path d="M687.56,364.83H363.06a22,22,0,0,0-21.94,21.94v324.5a21.94,21.94,0,0,0,21.94,21.93h324.5a21.93,21.93,0,0,0,21.93-21.93V386.77A21.94,21.94,0,0,0,687.56,364.83ZM665.63,689.34H385V408.7H665.63Z" transform="translate(-341.12 -364.83)"/></svg>