<svg id="Layer_1" data-name="Layer 1" xmlns="http://www.w3.org/2000/svg" viewBox="0 0 341.05 315.59"><title>humidity</title><path d="M4122.47,78.22h-259.2a13.44,13.44,0,1,0,0,26.87h259.2a41.55,41.55,0,1,1-41.55,41.55v-7.86a13.44,13.44,0,0,0-26.87,0v7.86a68.42,68.42,0,1,0,68.42-68.42Z" transform="translate(-3849.83 100.53)"/><path d="M4122.47-78.87a68.49,68.49,0,0,0-68.42,68.42V-2.6a13.45,13.45,0,0,0,13.43,13.44A13.46,13.46,0,0,0,4080.92-2.6v-7.85A41.6,41.6,0,0,1,4122.47-52,41.6,41.6,0,0,1,4164-10.45a41.59,41.59,0,0,1-41.54,41.54h-259.2a13.44,13.44,0,0,0,0,26.88h259.2a68.49,68.49,0,0,0,68.41-68.42A68.49,68.49,0,0,0,4122.47-78.87Z" transform="translate(-3849.83 100.53)"/><path d="M3863.27,10.86H3978.1a55.76,55.76,0,0,0,55.69-55.7,55.75,55.75,0,0,0-55.69-55.69,55.75,55.75,0,0,0-55.69,55.69v6a13.45,13.45,0,0,0,13.43,13.44,13.46,13.46,0,0,0,13.44-13.44v-6a28.85,28.85,0,0,1,28.82-28.82,28.85,28.85,0,0,1,28.82,28.82A28.85,28.85,0,0,1,3978.1-16H3863.27a13.46,13.46,0,0,0-13.44,13.44A13.46,13.46,0,0,0,3863.27,10.86Z" transform="translate(-3849.83 100.53)"/></svg>