<svg id="Layer_1" data-name="Layer 1" xmlns="http://www.w3.org/2000/svg" viewBox="0 0 386.75 359.76"><title>lights</title><path d="M5197-1339.57v39.14a46.87,46.87,0,0,0,46.82,46.82,46.87,46.87,0,0,0,46.82-46.82v-39.14A93.41,93.41,0,0,0,5337-1420a93.21,93.21,0,0,0-93.1-93.1,93.21,93.21,0,0,0-93.1,93.1A93.41,93.41,0,0,0,5197-1339.57Zm61.71,39.14a14.9,14.9,0,0,1-14.89,14.88,14.89,14.89,0,0,1-14.88-14.88v-27.67a92.35,92.35,0,0,0,29.77,0Zm-14.89-180.72A61.24,61.24,0,0,1,5305-1420a61.24,61.24,0,0,1-61.17,61.17,61.24,61.24,0,0,1-61.17-61.17A61.24,61.24,0,0,1,5243.86-1481.15Z" transform="translate(-5050.48 1613.37)"/><path d="M5243.86-1558.29a16,16,0,0,0,16-16v-23.14a16,16,0,0,0-16-16,16,16,0,0,0-16,16v23.14A16,16,0,0,0,5243.86-1558.29Z" transform="translate(-5050.48 1613.37)"/><path d="M5066.45-1404h23.14a16,16,0,0,0,16-16,16,16,0,0,0-16-16h-23.14a16,16,0,0,0-16,16A16,16,0,0,0,5066.45-1404Z" transform="translate(-5050.48 1613.37)"/><path d="M5421.27-1436h-23.14a16,16,0,0,0-16,16,16,16,0,0,0,16,16h23.14a16,16,0,0,0,16-16A16,16,0,0,0,5421.27-1436Z" transform="translate(-5050.48 1613.37)"/><path d="M5353-1513.1a15.86,15.86,0,0,0,11.29-4.68l11.84-11.84a16,16,0,0,0,0-22.59,16,16,0,0,0-22.58,0l-11.85,11.85a16,16,0,0,0,0,22.58A15.87,15.87,0,0,0,5353-1513.1Z" transform="translate(-5050.48 1613.37)"/><path d="M5123.49-1517.78a15.83,15.83,0,0,0,11.29,4.68,15.86,15.86,0,0,0,11.29-4.68,16,16,0,0,0,0-22.58l-11.85-11.85a16,16,0,0,0-22.58,0,16,16,0,0,0,0,22.59Z" transform="translate(-5050.48 1613.37)"/></svg>