<svg id="Layer_1" data-name="Layer 1" xmlns="http://www.w3.org/2000/svg" viewBox="0 0 887.9 609.45"><title>nutrients</title><path d="M5047.23,3153.09v17.08a161.44,161.44,0,0,0,26,88l-16,16a34.17,34.17,0,1,0,48.32,48.32l16-16a162.17,162.17,0,0,0,250.27-136.29V2990.78H5209.54A162.31,162.31,0,0,0,5047.23,3153.09Zm200-71.88a17.07,17.07,0,0,1,0,24.16l-39.17,39.18h85.42l-97.5,97.5a17.08,17.08,0,1,1-24.16-24.16l39.17-39.17h-85.42l97.5-97.51A17.09,17.09,0,0,1,5247.25,3081.21Z" transform="translate(-5047.23 -2723.03)"/><path d="M5933.69,2726a1.5,1.5,0,0,0,0-3,1.5,1.5,0,0,0,0,3Z" transform="translate(-5047.23 -2723.03)"/></svg>