<svg id="Layer_1" data-name="Layer 1" xmlns="http://www.w3.org/2000/svg" viewBox="0 0 325.61 308.91"><title>oxygen</title><path d="M4102,2762.44a71,71,0,1,0-71-71A71,71,0,0,0,4102,2762.44Zm0-115.32a44.36,44.36,0,1,1-44.35,44.36A44.41,44.41,0,0,1,4102,2647.12Z" transform="translate(-3847.39 -2620.51)"/><path d="M3889.13,2695.65a41.75,41.75,0,1,0,41.75,41.75A41.75,41.75,0,0,0,3889.13,2695.65Zm0,58.44a16.7,16.7,0,1,1,16.7-16.69A16.72,16.72,0,0,1,3889.13,2754.09Z" transform="translate(-3847.39 -2620.51)"/><path d="M4006,2779.14a50.1,50.1,0,1,0,50.09,50.1A50.09,50.09,0,0,0,4006,2779.14Zm0,75.14a25,25,0,1,1,25.05-25A25.07,25.07,0,0,1,4006,2854.28Z" transform="translate(-3847.39 -2620.51)"/><circle cx="41.75" cy="275.52" r="25.05"/><path d="M4122.91,2862.63a33.4,33.4,0,1,0,33.39,33.4A33.4,33.4,0,0,0,4122.91,2862.63Zm0,41.75a8.35,8.35,0,1,1,8.34-8.35A8.36,8.36,0,0,1,4122.91,2904.38Z" transform="translate(-3847.39 -2620.51)"/></svg>