<svg id="Layer_1" data-name="Layer 1" xmlns="http://www.w3.org/2000/svg" viewBox="0 0 393.1 393.1"><title>settings</title><path d="M715.45,3708.45a18.33,18.33,0,0,0-13.62-5.7H672.67a161.82,161.82,0,0,0-6-19.19,142.11,142.11,0,0,0-8.26-18.09l22.68-23a17.6,17.6,0,0,0,5.76-13.3,18.83,18.83,0,0,0-5.76-13.63l-28-28a19,19,0,0,0-27.25,0l-20.78,20.71a136.29,136.29,0,0,0-17.62-9.57,180.43,180.43,0,0,0-18.8-7.33v-31.85a19,19,0,0,0-19.19-19.19h-40A18.69,18.69,0,0,0,496,3545.9a18.37,18.37,0,0,0-5.7,13.63v29.16a142.06,142.06,0,0,0-19.39,6,150.14,150.14,0,0,0-17.89,8.25l-23-22.67a17.59,17.59,0,0,0-13.29-5.77,18.83,18.83,0,0,0-13.63,5.77l-28,28.05a19,19,0,0,0,0,27.25l20.71,20.77a138.58,138.58,0,0,0-9.56,17.61,183.83,183.83,0,0,0-7.34,18.81H347.13a19,19,0,0,0-19.2,19.2v40a18.71,18.71,0,0,0,5.56,13.43,18.39,18.39,0,0,0,13.63,5.7h29.15a143.8,143.8,0,0,0,6,19.38,178.43,178.43,0,0,0,8.25,18.28l-22.67,22.6a17.62,17.62,0,0,0-5.76,13.31,18.85,18.85,0,0,0,5.76,13.63l28.05,28.37a19.94,19.94,0,0,0,27.25,0l20.77-21.09a140,140,0,0,0,17.62,9.56,185.25,185.25,0,0,0,18.81,7.34v31.84a19,19,0,0,0,19.19,19.2h40a18.67,18.67,0,0,0,13.43-5.58,18.36,18.36,0,0,0,5.69-13.62v-29.16a143,143,0,0,0,19.39-6,176.36,176.36,0,0,0,18.28-8.26l22.6,22.68a18.63,18.63,0,0,0,26.94,0l28.37-28a19.34,19.34,0,0,0,5.38-13.63,19.14,19.14,0,0,0-5.38-13.63l-21.09-20.77a140,140,0,0,0,9.57-17.62A187.55,187.55,0,0,0,670,3781h31.84a19,19,0,0,0,19.19-19.2v-40A18.66,18.66,0,0,0,715.45,3708.45Zm-191,111.43a83,83,0,1,1,83-83A83,83,0,0,1,524.47,3819.88Z" transform="translate(-327.93 -3540.34)"/></svg>