<svg id="Layer_1" data-name="Layer 1" xmlns="http://www.w3.org/2000/svg" viewBox="0 0 207.84 449.16"><title>temperature</title><path d="M4011.47-1101.2a104,104,0,0,0,103.92-103.92,103.2,103.2,0,0,0-30.24-73.29l0-199.28c0-27.55-12.12-49.71-34.11-62.41-23.69-13.67-55.52-13.67-79.2,0-22,12.7-34.09,34.86-34.08,62.41v199.29a103.24,103.24,0,0,0-30.23,73.28A104,104,0,0,0,4011.47-1101.2Zm-51.72-162.22.47-.53a13,13,0,0,0,3.82-8.16l.23-1.05v-204.65c-.05-.77-.08-1.67-.08-2.58a44.78,44.78,0,0,1,44.73-44.72c.85,0,1.7,0,2.74.07.73,0,1.56-.07,2.41-.07a44.77,44.77,0,0,1,44.72,44.72c0,.91,0,1.8-.09,2.81v204.22l.21,1.13a13,13,0,0,0,3.83,8.28l.37.45a77.74,77.74,0,0,1,25.82,57.73,77.56,77.56,0,0,1-77.44,77.46v1.9l0-1.9a77.54,77.54,0,0,1-77.44-77.46A77.56,77.56,0,0,1,3959.75-1263.42Z" transform="translate(-3907.55 1550.35)"/><path d="M4011.47-1162.09a43.52,43.52,0,0,0,43.47-43.47,43.71,43.71,0,0,0-30.23-41.41v-172.72a13.26,13.26,0,0,0-13.24-13.24,13.26,13.26,0,0,0-13.24,13.24V-1247a43.29,43.29,0,0,0-30.23,41.4A43.52,43.52,0,0,0,4011.47-1162.09Z" transform="translate(-3907.55 1550.35)"/></svg>