<svg id="Layer_1" data-name="Layer 1" xmlns="http://www.w3.org/2000/svg" viewBox="0 0 846.96 1535.72"><title>water_pump</title><path d="M5385.86,1400.15l-.11-1.8c-.16-2.53-.4-5-.69-7.56-.08-.64-.16-1.28-.25-1.92l-.08-.62c-.26-1.88-.54-3.75-.86-5.62-.25-1.47-.53-2.94-.82-4.4s-.58-2.86-.9-4.28-.61-2.7-.95-4q-.64-2.57-1.36-5.11c-22.53-80.08-99-145.89-130.77-170.46a20.21,20.21,0,0,0-24.21,0c-33.91,25.88-114.76,95.19-133,179.66-.22,1-.42,2-.62,3.06-.36,1.81-.7,3.63-1,5.45s-.54,3.47-.8,5.43c-.11.88-.23,1.76-.32,2.65-.29,2.48-.5,5-.66,7.46l-.1,1.84c-.14,2.78-.23,5.57-.22,8.37A149.35,149.35,0,0,0,5137,1518.43a151.25,151.25,0,0,0,22.92,17.15,149,149,0,0,0,226.19-127.15h0C5386.11,1405.65,5386,1402.9,5385.86,1400.15Zm-260.08-37c21.78-64.22,84-118.94,111.14-140.44,27,21.67,89.07,76.7,111.23,140.44Z" transform="translate(-5088.17 -1190.31)"/><path d="M5933.69,2726a1.5,1.5,0,0,0,0-3,1.5,1.5,0,0,0,0,3Z" transform="translate(-5088.17 -1190.31)"/></svg>